<?xml version="1.0" encoding="UTF-8"?>
<svg version="1.1" xmlns="http://www.w3.org/2000/svg" width="640" height="480">
<path d="M0 0 C0.80147461 0.2676416 1.60294922 0.5352832 2.42871094 0.81103516 C54.65356889 18.64563281 96.76098464 56.55540831 121.21508789 105.88427734 C125.09048367 114.01707938 128.08814857 122.48453882 131 131 C131.39058594 132.11890625 131.78117187 133.2378125 132.18359375 134.390625 C148.7707054 184.73283157 142.47216078 242.53010449 118.83935547 289.53613281 C110.9745289 304.61714047 101.32129793 318.33870019 90 331 C89.26394531 331.85722656 88.52789062 332.71445312 87.76953125 333.59765625 C73.89037163 349.54984153 57.22002656 362.59646946 38.83251953 372.96630859 C37.62619125 373.64677674 36.42388861 374.33443956 35.22607422 375.02978516 C24.32579027 381.34874654 12.86343207 385.81435806 1 390 C-0.16402344 390.4125 -1.32804687 390.825 -2.52734375 391.25 C-21.58879221 397.53021983 -42.25279917 400.40112387 -62.25 400.375 C-62.93299164 400.37478851 -63.61598328 400.37457703 -64.31967163 400.37435913 C-119.69769577 400.20541873 -170.73168381 377.48115063 -210 339 C-210.89041992 338.13810059 -210.89041992 338.13810059 -211.79882812 337.25878906 C-215.63010237 333.5044731 -219.10027118 329.62131129 -222.375 325.375 C-222.84268799 324.77236328 -223.31037598 324.16972656 -223.79223633 323.54882812 C-245.48195874 295.36065722 -259.75368864 264.02983071 -266 229 C-266.18691406 227.96762207 -266.37382812 226.93524414 -266.56640625 225.87158203 C-268.21030267 215.78363552 -268.39766262 205.81850477 -268.375 195.625 C-268.37478851 194.7452652 -268.37457703 193.8655304 -268.37435913 192.95913696 C-268.34007113 178.63341701 -267.29911511 164.98260947 -264 151 C-263.81808105 150.17918945 -263.63616211 149.35837891 -263.44873047 148.51269531 C-251.5054379 95.12543041 -217.51422471 49.73625742 -171.87109375 20.30078125 C-154.89888349 9.71464142 -136.18858746 2.43343013 -117 -3 C-115.98679688 -3.30421875 -114.97359375 -3.6084375 -113.9296875 -3.921875 C-110.96691045 -4.7490891 -108.01787678 -5.40211875 -105 -6 C-104.33484375 -6.13535156 -103.6696875 -6.27070313 -102.984375 -6.41015625 C-69.59823547 -12.88893508 -32.21011848 -10.81389817 0 0 Z M-181.53125 78.5 C-191.09598957 88.02269676 -198.85494908 98.57723632 -206 110 C-206.71700073 111.11991333 -206.71700073 111.11991333 -207.44848633 112.26245117 C-211.38357743 118.56777608 -214.34539448 125.02793511 -217.0625 131.9375 C-217.70928711 133.57295776 -217.70928711 133.57295776 -218.36914062 135.24145508 C-220.90998064 141.80833491 -223.1976413 148.37945766 -225 155.1875 C-225.18312744 155.87900146 -225.36625488 156.57050293 -225.55493164 157.28295898 C-228.59244078 169.68575603 -229.3786416 182.04603758 -229.3125 194.75 C-229.31034485 195.49800873 -229.3081897 196.24601746 -229.30596924 197.01669312 C-229.25404528 208.26183141 -228.77917561 219.06454815 -226 230 C-225.70996094 231.20076172 -225.70996094 231.20076172 -225.4140625 232.42578125 C-220.4918384 252.44890276 -212.77256203 271.03952927 -201 288 C-200.27039063 289.05445313 -199.54078125 290.10890625 -198.7890625 291.1953125 C-172.18389525 327.98151848 -132.56441268 352.19247126 -87.8046875 359.421875 C-86.54914063 359.61265625 -85.29359375 359.8034375 -84 360 C-82.94554687 360.185625 -81.89109375 360.37125 -80.8046875 360.5625 C-64.31324581 362.45884648 -47.19007465 361.61098731 -31 358 C-30.20658203 357.82307617 -29.41316406 357.64615234 -28.59570312 357.46386719 C-17.6580726 354.94481863 -7.23540421 351.64560922 3 347 C3.64533691 346.70754395 4.29067383 346.41508789 4.95556641 346.11376953 C43.46334635 328.36768602 74.42529799 296.24257244 90.24316406 256.88183594 C90.9330637 255.16643387 91.64877726 253.46147106 92.3671875 251.7578125 C95.37072176 244.12771615 97.12068267 236.39711674 98.75 228.375 C98.96092285 227.33802979 99.1718457 226.30105957 99.38916016 225.23266602 C107.45070876 183.46008868 98.38816347 139.15330974 74.890625 103.6953125 C69.18470291 95.56083679 63.11225308 87.92973483 56.375 80.625 C55.86114746 80.06643311 55.34729492 79.50786621 54.81787109 78.93237305 C25.36710881 47.59612883 -16.94431656 30.82691866 -59.42578125 29.09765625 C-105.3333888 27.78601032 -148.8513026 46.7981037 -181.53125 78.5 Z " fill="#4B5765" transform="translate(363,35)"/>
<path d="M0 0 C1.06701141 -0.00281982 2.13402283 -0.00563965 3.23336792 -0.00854492 C4.40900803 -0.00652069 5.58464813 -0.00449646 6.7959137 -0.00241089 C8.64717865 -0.00503937 8.64717865 -0.00503937 10.5358429 -0.00772095 C13.92633502 -0.0113757 17.31676637 -0.01050808 20.70725513 -0.00734186 C24.25195063 -0.00481459 27.7966435 -0.00715688 31.34133911 -0.00872803 C37.29576587 -0.01054888 43.25018023 -0.00814586 49.2046051 -0.00338745 C56.09148065 0.00205251 62.97832659 0.00029411 69.86520141 -0.00521386 C75.77352255 -0.00975035 81.68183477 -0.01039283 87.59015709 -0.00777519 C91.12088479 -0.00621505 94.65159856 -0.00601142 98.18232536 -0.00931168 C102.11863737 -0.0127338 106.05491615 -0.00799185 109.9912262 -0.00241089 C111.75165001 -0.00544724 111.75165001 -0.00544724 113.54763794 -0.00854492 C114.61746918 -0.0057251 115.68730042 -0.00290527 116.78955078 0 C117.72072944 0.00037703 118.65190809 0.00075405 119.61130428 0.0011425 C121.95826721 0.12698364 121.95826721 0.12698364 124.95826721 1.12698364 C125.05186161 22.82417236 125.12232033 44.52132762 125.1655159 66.21867752 C125.18610874 76.29397597 125.21416648 86.36914871 125.26002502 96.44436646 C125.29999335 105.22970694 125.32572383 114.01495635 125.33462119 122.80038524 C125.33981905 127.44880755 125.3519671 132.09696939 125.38118744 136.74530792 C125.40851478 141.12838444 125.41667754 145.51109534 125.41069794 149.89424896 C125.41179048 151.49533582 125.41964069 153.09643603 125.43508911 154.69744873 C125.57215116 169.64633667 122.68325422 181.64833937 112.39576721 192.93948364 C111.59139221 193.66135864 110.78701721 194.38323364 109.95826721 195.12698364 C109.19514221 195.82823364 108.43201721 196.52948364 107.64576721 197.25198364 C99.69265781 202.80066462 90.43778196 203.93984058 80.95826721 203.12698364 C74.04288864 201.54296368 67.40925049 198.85140901 62.95826721 193.12698364 C58.42876462 184.37271563 56.52470676 175.75234688 59.14576721 166.12698364 C61.52473029 158.85606833 65.27513462 153.25566428 70.95826721 148.12698364 C71.86576721 147.28135864 72.77326721 146.43573364 73.70826721 145.56448364 C84.24381209 136.91223564 95.48555402 138.12698364 108.95826721 138.12698364 C108.62826721 115.02698364 108.29826721 91.92698364 107.95826721 68.12698364 C59.44826721 68.62198364 59.44826721 68.62198364 9.95826721 69.12698364 C10.03728589 98.86383681 10.03728589 98.86383681 10.13844299 128.60061646 C10.1474762 134.38626099 10.1474762 134.38626099 10.14915466 137.10519409 C10.15220138 138.9813431 10.15918407 140.85748849 10.16941833 142.73361206 C10.26769756 161.71910243 9.78271587 178.95153094 -4.14720154 193.29495239 C-8.85889415 197.74713697 -12.81434333 200.33265109 -19.04173279 202.12698364 C-19.95245544 202.39962036 -19.95245544 202.39962036 -20.88157654 202.67776489 C-29.82856619 204.53835044 -38.45141181 203.61707354 -46.16282654 198.80276489 C-52.75567345 194.19382054 -56.46579544 189.13799847 -58.04173279 181.12698364 C-59.15792678 170.28637231 -55.91136952 161.58223438 -50.19017029 152.49026489 C-49.62169373 151.81544067 -49.62169373 151.81544067 -49.04173279 151.12698364 C-48.38173279 151.12698364 -47.72173279 151.12698364 -47.04173279 151.12698364 C-47.04173279 150.46698364 -47.04173279 149.80698364 -47.04173279 149.12698364 C-40.43105509 142.82252263 -31.1961047 137.95914749 -21.93235779 138.02932739 C-21.17825623 138.03255005 -20.42415466 138.03577271 -19.64720154 138.03909302 C-18.86989685 138.04747192 -18.09259216 138.05585083 -17.29173279 138.06448364 C-16.49895935 138.06899536 -15.70618591 138.07350708 -14.88938904 138.07815552 C-12.94013771 138.089898 -10.99092541 138.10783219 -9.04173279 138.12698364 C-9.03750085 137.43914889 -9.03326891 136.75131414 -9.02890873 136.04263592 C-8.92567196 119.31776049 -8.81704469 102.59292969 -8.70239353 85.86812878 C-8.64707989 77.78019344 -8.59360093 69.6922537 -8.54441833 61.60427856 C-8.50155374 54.55604673 -8.45526998 47.50784714 -8.40485424 40.45966512 C-8.37827165 36.72659623 -8.35341902 32.99353366 -8.33265877 29.26042747 C-8.30943785 25.09635028 -8.27858452 20.93236363 -8.24705505 16.76834106 C-8.24129959 15.52612793 -8.23554413 14.28391479 -8.22961426 13.00405884 C-8.21493103 11.30662788 -8.21493103 11.30662788 -8.19995117 9.5749054 C-8.19349862 8.5895087 -8.18704607 7.604112 -8.18039799 6.58885479 C-8.04173279 4.12698364 -8.04173279 4.12698364 -7.04173279 1.12698364 C-4.52706446 -0.13035052 -2.81507285 0.00114026 0 0 Z M9.95826721 24.12698364 C9.95826721 30.72698364 9.95826721 37.32698364 9.95826721 44.12698364 C22.71860906 44.14953271 35.47893778 44.16789759 48.23929501 44.17879581 C54.16377436 44.18402513 60.08823944 44.19112365 66.01271057 44.2024231 C71.72499292 44.21325025 77.43726149 44.21926011 83.1495533 44.22186089 C85.33414998 44.22371545 87.51874587 44.22733664 89.70333672 44.2327137 C92.7517907 44.23992186 95.800187 44.24097468 98.84864807 44.24050903 C100.21781372 44.24590195 100.21781372 44.24590195 101.61463928 44.25140381 C105.60394177 44.64780022 105.60394177 44.64780022 108.95826721 43.12698364 C109.05663931 41.79654739 109.08905314 40.4610502 109.09107971 39.12698364 C109.09236877 38.32260864 109.09365784 37.51823364 109.09498596 36.68948364 C109.09111877 35.84385864 109.08725159 34.99823364 109.08326721 34.12698364 C109.0871344 33.28135864 109.09100159 32.43573364 109.09498596 31.56448364 C109.0936969 30.76010864 109.09240784 29.95573364 109.09107971 29.12698364 C109.08938782 28.01323364 109.08938782 28.01323364 109.08766174 26.87698364 C109.14768937 25.09872553 109.14768937 25.09872553 107.95826721 24.12698364 C104.91424299 24.03167384 101.89295013 24.00146726 98.84864807 24.01345825 C97.89265213 24.01331223 96.93665619 24.0131662 95.95169067 24.01301575 C92.77547476 24.01371529 89.59931669 24.02150962 86.42311096 24.02932739 C84.22735628 24.03119142 82.03160119 24.0326154 79.83584595 24.03361511 C74.04406088 24.03744146 68.25230071 24.04727273 62.46052551 24.05831909 C56.5554793 24.06853071 50.65042908 24.0731122 44.74537659 24.07815552 C33.14966074 24.0888949 21.55396994 24.10649264 9.95826721 24.12698364 Z " fill="#4B5667" transform="translate(255.04173278808594,125.87301635742188)"/>
</svg>
