<?xml version="1.0" encoding="UTF-8"?>
<svg version="1.1" xmlns="http://www.w3.org/2000/svg" width="640" height="480">
<path d="M0 0 C0.80147461 0.2676416 1.60294922 0.5352832 2.42871094 0.81103516 C54.65356889 18.64563281 96.76098464 56.55540831 121.21508789 105.88427734 C125.09048367 114.01707938 128.08814857 122.48453882 131 131 C131.39058594 132.11890625 131.78117187 133.2378125 132.18359375 134.390625 C148.7707054 184.73283157 142.47216078 242.53010449 118.83935547 289.53613281 C110.9745289 304.61714047 101.32129793 318.33870019 90 331 C89.26394531 331.85722656 88.52789062 332.71445312 87.76953125 333.59765625 C73.89037163 349.54984153 57.22002656 362.59646946 38.83251953 372.96630859 C37.62619125 373.64677674 36.42388861 374.33443956 35.22607422 375.02978516 C24.32579027 381.34874654 12.86343207 385.81435806 1 390 C-0.16402344 390.4125 -1.32804687 390.825 -2.52734375 391.25 C-21.58879221 397.53021983 -42.25279917 400.40112387 -62.25 400.375 C-62.93299164 400.37478851 -63.61598328 400.37457703 -64.31967163 400.37435913 C-119.69769577 400.20541873 -170.73168381 377.48115063 -210 339 C-210.89041992 338.13810059 -210.89041992 338.13810059 -211.79882812 337.25878906 C-215.63010237 333.5044731 -219.10027118 329.62131129 -222.375 325.375 C-222.84268799 324.77236328 -223.31037598 324.16972656 -223.79223633 323.54882812 C-245.48195874 295.36065722 -259.75368864 264.02983071 -266 229 C-266.18691406 227.96762207 -266.37382812 226.93524414 -266.56640625 225.87158203 C-268.21030267 215.78363552 -268.39766262 205.81850477 -268.375 195.625 C-268.37478851 194.7452652 -268.37457703 193.8655304 -268.37435913 192.95913696 C-268.34007113 178.63341701 -267.29911511 164.98260947 -264 151 C-263.81808105 150.17918945 -263.63616211 149.35837891 -263.44873047 148.51269531 C-251.49746183 95.08977689 -217.51361483 49.74644212 -171.87890625 20.30859375 C-154.909355 9.71335021 -136.19049893 2.43397138 -117 -3 C-115.98679688 -3.30421875 -114.97359375 -3.6084375 -113.9296875 -3.921875 C-110.96691045 -4.7490891 -108.01787678 -5.40211875 -105 -6 C-104.33484375 -6.13535156 -103.6696875 -6.27070313 -102.984375 -6.41015625 C-69.59823547 -12.88893508 -32.21011848 -10.81389817 0 0 Z M-170 68 C-170.66 68.99 -171.32 69.98 -172 71 C-162.21312312 80.98463523 -162.21312312 80.98463523 -151.85546875 90.36328125 C-148.83037922 93.03172865 -146.05048634 95.94197275 -143.21875 98.8125 C-140.59277288 101.40149153 -137.83249039 103.78808858 -135.03125 106.18359375 C-132.02531343 108.87159473 -129.25149273 111.77487781 -126.46875 114.69140625 C-123.21477236 117.73428724 -119.56404222 120.32696834 -116 123 C-115.67 112.77 -115.34 102.54 -115 92 C-71.44 92 -27.88 92 17 92 C16.82597656 103.15941406 16.65195312 114.31882812 16.47265625 125.81640625 C16.39597669 132.90304725 16.32314408 139.98938585 16.26757812 147.07617188 C16.17874315 158.31542219 16.07461085 169.55297959 15.8684082 180.79077148 C15.7182646 188.97736083 15.62198136 197.16257061 15.58867258 205.35049862 C15.56921716 209.68150117 15.52396565 214.00855964 15.41404915 218.33828926 C14.08870267 238.80902421 14.08870267 238.80902421 22.25552273 256.5977087 C24.78832734 258.92857145 27.38462957 260.97156543 30.26338005 262.85693169 C32.49556499 264.32618803 34.41900515 266.06028501 36.375 267.875 C36.97054687 268.37773437 37.56609375 268.88046875 38.1796875 269.3984375 C41.19556138 272.05188877 43.96137714 274.95399875 46.78125 277.8125 C49.3994704 280.39384406 52.14992319 282.77453285 54.9453125 285.16015625 C58.16234099 288.04080344 61.13056038 291.16063705 64.1171875 294.27734375 C65.82060216 296.2250104 65.82060216 296.2250104 68 296 C69.67557252 293.73978528 71.22694356 291.485302 72.75 289.125 C73.20028564 288.43462646 73.65057129 287.74425293 74.11450195 287.03295898 C75.01273207 285.64968784 75.90709035 284.26389402 76.79736328 282.87548828 C77.77077409 281.3574733 78.75655544 279.84739541 79.74609375 278.33984375 C84.40320951 270.98185327 87.70420967 263.03261452 91 255 C91.45503906 253.92363281 91.91007812 252.84726562 92.37890625 251.73828125 C95.37108488 244.11244669 97.12221774 236.38955863 98.75 228.375 C98.96092285 227.33802979 99.1718457 226.30105957 99.38916016 225.23266602 C107.45070876 183.46008868 98.38816347 139.15330974 74.890625 103.6953125 C69.18470291 95.56083679 63.11225308 87.92973483 56.375 80.625 C55.86114746 80.06643311 55.34729492 79.50786621 54.81787109 78.93237305 C25.36710881 47.59612883 -16.94431656 30.82691866 -59.42578125 29.09765625 C-98.61199513 27.97805014 -140.55509902 41.72106004 -170 68 Z M-195 94 C-196.65815702 96.04920319 -198.18433123 98.09059293 -199.6875 100.25 C-200.13738281 100.89477295 -200.58726562 101.5395459 -201.05078125 102.20385742 C-202.37946933 104.12784522 -203.69195118 106.06193951 -205 108 C-205.61488281 108.89847656 -206.22976562 109.79695313 -206.86328125 110.72265625 C-222.52331492 135.50213674 -229.46345695 165.75536781 -229.3125 194.75 C-229.31034485 195.49800873 -229.3081897 196.24601746 -229.30596924 197.01669312 C-229.25404528 208.26183141 -228.77917561 219.06454815 -226 230 C-225.70996094 231.20076172 -225.70996094 231.20076172 -225.4140625 232.42578125 C-220.4918384 252.44890276 -212.77256203 271.03952927 -201 288 C-200.27039063 289.05445313 -199.54078125 290.10890625 -198.7890625 291.1953125 C-172.18389525 327.98151848 -132.56441268 352.19247126 -87.8046875 359.421875 C-86.54914063 359.61265625 -85.29359375 359.8034375 -84 360 C-82.94554687 360.185625 -81.89109375 360.37125 -80.8046875 360.5625 C-64.31324581 362.45884648 -47.19007465 361.61098731 -31 358 C-30.20658203 357.82307617 -29.41316406 357.64615234 -28.59570312 357.46386719 C-17.6580726 354.94481863 -7.23540421 351.64560922 3 347 C3.96800537 346.56131592 3.96800537 346.56131592 4.95556641 346.11376953 C18.76933731 339.7477746 32.97649629 331.60706024 44 321 C44.33 320.01 44.66 319.02 45 318 C44.52691406 317.59910156 44.05382812 317.19820312 43.56640625 316.78515625 C39.73001317 313.4872043 36.05321382 310.10264984 32.5 306.5 C29.16445686 303.1188426 25.71894269 299.97710206 22.109375 296.89453125 C18.70699201 293.83868726 15.56257386 290.53036764 12.39453125 287.234375 C10.06241918 285.05824432 7.78999527 283.52632068 5 282 C4.67 282.99 4.34 283.98 4 285 C2.375 285.9375 2.375 285.9375 0 287 C-1.0725 287.66 -2.145 288.32 -3.25 289 C-11.36513122 293.59800247 -20.97897111 294.448492 -30.00390625 292.27734375 C-36.39074347 290.13101886 -42.03820249 287.89195313 -45.2109375 281.59765625 C-49.51195426 271.21115832 -50.26752483 262.5680044 -46 252 C-44.82193225 249.87725529 -43.57038629 247.87834293 -42.18359375 245.88671875 C-40.80227126 243.68480863 -39.90776133 241.43045776 -39 239 C-39.7734375 238.29875 -40.546875 237.5975 -41.34375 236.875 C-46.73513793 231.96963545 -52.03137295 227.02171781 -57.14453125 221.82421875 C-59.01413647 219.98610162 -60.94850607 218.27014312 -62.9375 216.5625 C-65.92801716 213.99334729 -68.73116684 211.30682744 -71.5 208.5 C-74.85678037 205.09723634 -78.32474881 201.93115271 -81.95703125 198.828125 C-85.06852834 196.0438408 -87.93950078 193.03218565 -90.82421875 190.015625 C-93.07180041 187.93348472 -95.35941529 186.53477339 -98 185 C-98.01213028 186.21910065 -98.01213028 186.21910065 -98.02450562 187.46282959 C-98.10286415 195.1704847 -98.19027441 202.87796162 -98.28752708 210.58539963 C-98.33719965 214.54664447 -98.38352886 218.50786632 -98.421875 222.46923828 C-98.45909893 226.30138086 -98.50555208 230.13331614 -98.55806351 233.96527863 C-98.5764126 235.41785244 -98.5915901 236.87047034 -98.60334396 238.32311249 C-98.74825365 255.63367888 -100.40397643 271.0522412 -112.8828125 283.9453125 C-117.30896918 288.09374955 -121.19807492 290.25942248 -127 292 C-127.6084375 292.18304688 -128.216875 292.36609375 -128.84375 292.5546875 C-137.80722021 294.40583896 -146.44815678 293.50007507 -154.15625 288.640625 C-160.55526904 284.14276379 -163.37773494 279.73695644 -165 272 C-166.1113581 261.35086719 -163.17668483 252.60323958 -157 244 C-157 243.34 -157 242.68 -157 242 C-156.34 242 -155.68 242 -155 242 C-155 241.34 -155 240.68 -155 240 C-154.41605469 239.72027344 -153.83210938 239.44054687 -153.23046875 239.15234375 C-151.14121992 238.0729595 -149.26126866 236.87393551 -147.3125 235.5625 C-139.71429277 230.88455092 -133.52438423 229.81787647 -124.6796875 229.92578125 C-123.84429443 229.93113892 -123.00890137 229.93649658 -122.14819336 229.9420166 C-120.09875169 229.95593347 -118.04936242 229.97722931 -116 230 C-115.72024251 221.99360702 -115.50791215 213.98929902 -115.37825394 205.97920609 C-115.31597562 202.25829089 -115.23174622 198.54074995 -115.09472656 194.82177734 C-113.51522223 176.61589579 -113.51522223 176.61589579 -120.14190674 160.68804932 C-122.59221212 158.49130226 -125.20133708 156.72272594 -128 155 C-129.41794886 153.79641268 -130.81997412 152.57308492 -132.1875 151.3125 C-132.81011719 150.78269531 -133.43273437 150.25289062 -134.07421875 149.70703125 C-137.11936253 147.00778615 -139.92842701 144.07938937 -142.78515625 141.18359375 C-144.77659461 139.22025329 -146.81302578 137.37920331 -148.9375 135.5625 C-153.03058303 132.0553056 -156.77224704 128.24274842 -160.55859375 124.41015625 C-163.27202727 121.73145468 -166.10777023 119.25391882 -169.00390625 116.77734375 C-172.0611837 114.0551104 -174.89190231 111.11648524 -177.765625 108.203125 C-180.47671719 105.52995019 -183.31764509 103.04677342 -186.2109375 100.57421875 C-187.84931665 99.13258819 -189.36621919 97.63745541 -190.875 96.0625 C-192.74563699 93.76784154 -192.74563699 93.76784154 -195 94 Z M-98 115 C-98 121.6 -98 128.2 -98 135 C-85.23965815 135.02254906 -72.47932943 135.04091395 -59.71897221 135.05181217 C-53.79449285 135.05704149 -47.87002778 135.06414001 -41.94555664 135.07543945 C-36.23327429 135.08626661 -30.52100572 135.09227647 -24.80871391 135.09487724 C-22.62411723 135.0967318 -20.43952135 135.100353 -18.2549305 135.10573006 C-15.20647651 135.11293821 -12.15808021 135.11399104 -9.10961914 135.11352539 C-7.74045349 135.1189183 -7.74045349 135.1189183 -6.34362793 135.12442017 C-2.35432545 135.52081658 -2.35432545 135.52081658 1 134 C1.0983721 132.66956375 1.13078592 131.33406656 1.1328125 130 C1.13410156 129.195625 1.13539063 128.39125 1.13671875 127.5625 C1.13285156 126.716875 1.12898438 125.87125 1.125 125 C1.12886719 124.154375 1.13273437 123.30875 1.13671875 122.4375 C1.13542969 121.633125 1.13414062 120.82875 1.1328125 120 C1.13112061 118.88625 1.13112061 118.88625 1.12939453 117.75 C1.18942216 115.97174189 1.18942216 115.97174189 0 115 C-3.04402422 114.90469019 -6.06531708 114.87448361 -9.10961914 114.88647461 C-10.06561508 114.88632858 -11.02161102 114.88618256 -12.00657654 114.8860321 C-15.18279245 114.88673165 -18.35895052 114.89452597 -21.53515625 114.90234375 C-23.73091093 114.90420778 -25.92666602 114.90563175 -28.12242126 114.90663147 C-33.91420633 114.91045781 -39.7059665 114.92028909 -45.4977417 114.93133545 C-51.40278791 114.94154707 -57.30783813 114.94612855 -63.21289062 114.95117188 C-74.80860648 114.96191126 -86.40429728 114.97950899 -98 115 Z M-8.29541016 157.97827148 C-9.04672714 157.98787903 -9.79804413 157.99748657 -10.5721283 158.00738525 C-13.06120016 158.04042694 -15.55009932 158.08073947 -18.0390625 158.12109375 C-19.76255683 158.14538982 -21.48605759 158.16923363 -23.20956421 158.19264221 C-27.75031854 158.25553421 -32.29095931 158.32458634 -36.831604 158.39489746 C-41.46320414 158.46553475 -46.09488492 158.53037925 -50.7265625 158.59570312 C-59.81779695 158.72478138 -68.90892201 158.86036389 -78 159 C-77.04274148 160.12903708 -76.08374956 161.25660466 -75.12402344 162.38354492 C-74.59017029 163.01161545 -74.05631714 163.63968597 -73.50628662 164.28678894 C-71.87422701 166.14305091 -70.15987379 167.74488236 -68.25 169.3125 C-65.00513705 172.06815651 -61.98973504 174.96899561 -59 178 C-55.45767801 181.58558699 -51.82444339 184.94891662 -47.99609375 188.22265625 C-44.93333273 190.94977223 -42.09776507 193.89404637 -39.21875 196.8125 C-37.20569368 198.79720342 -35.14553597 200.66096916 -33 202.5 C-29.20921215 205.74924673 -25.73121576 209.25186032 -22.2265625 212.8046875 C-19.55871757 215.43508899 -16.76365542 217.87211138 -13.90625 220.29296875 C-11.34667052 222.58505119 -9.08384058 225.11891507 -6.8359375 227.71484375 C-4.55427597 229.57346234 -4.55427597 229.57346234 1 229 C1 205.9 1 182.8 1 159 C-1.98852699 157.5057365 -5.02340206 157.91884599 -8.29541016 157.97827148 Z " fill="#4B5766" transform="translate(363,35)"/>
</svg>
